<svg width="48" height="24" viewBox="0 0 48 24" fill="none" xmlns="http://www.w3.org/2000/svg">
    <path fill-rule="evenodd" clip-rule="evenodd"
        d="M33.7148 5.1432L20.8568 0L8 5.1432V6.8568H9.7148C9.7148 7.0908 9.806 7.2912 9.9884 7.4604C10.1636 7.62702 10.3971 7.71835 10.6388 7.7148H31.076C31.3175 7.71907 31.5509 7.62762 31.7252 7.4604C31.8116 7.38538 31.8809 7.29265 31.9283 7.1885C31.9757 7.08435 32.0002 6.97123 32 6.8568H33.7148V5.1432ZM14.8568 8.5716H11.4284V18.8568H10.64C10.3981 18.8522 10.1642 18.9437 9.9896 19.1112C9.90342 19.1863 9.83438 19.2791 9.78718 19.3833C9.73997 19.4874 9.7157 19.6005 9.716 19.7148V20.5716H32V19.7148C32.0003 19.6003 31.9759 19.4872 31.9285 19.383C31.8811 19.2788 31.8117 19.1861 31.7252 19.1112C31.5503 18.9449 31.3173 18.8536 31.076 18.8568H30.2852V16.8H26.8568V18.8568H25.1432V8.5716H21.7148V18.8568H20V8.5716H16.5716V18.8568H14.8568V8.5716ZM26.8568 10.8H30.2852V8.5716H26.8568V10.8ZM33.44 21.684C33.2651 21.5177 33.0321 21.4264 32.7908 21.4296H8.924C8.68252 21.4255 8.44918 21.5169 8.2748 21.684C8.18855 21.7589 8.11938 21.8514 8.07197 21.9554C8.02457 22.0593 8.00002 22.1722 8 22.2864V24H33.7148V22.2852C33.715 22.1709 33.6906 22.058 33.6432 21.954C33.5957 21.85 33.5264 21.7575 33.44 21.6828V21.684Z"
        fill="#246589" />
    <path fill-rule="evenodd" clip-rule="evenodd"
        d="M34.6376 18.6L40.4 13.806L34.646 9L34.6436 12.288H26V15.3144H34.64L34.6376 18.6Z" fill="#DC0032" />
</svg>