<svg viewBox="0 0 36 24" xmlns="http://www.w3.org/2000/svg">
    <path fill-rule="evenodd" clip-rule="evenodd"
          d="M5.901 2a.477.477 0 0 0-.478.476c.24 6.831 5.65 12.351 12.455 12.802.298.02.597.007.9.007.967 0 1.972-.17 2.88-.369a6.504 6.504 0 0 0 5.115-6.38c-.001-.602-.085-1.202-.248-1.782A6.56 6.56 0 0 0 20.21 2a6.563 6.563 0 0 0-6.317 4.754 6.561 6.561 0 0 0 3.698 4.21 3.543 3.543 0 0 1-.96-2.428 3.573 3.573 0 0 1 3.58-3.565 3.573 3.573 0 0 1 3.579 3.565 3.55 3.55 0 0 1-.96 2.43 3.583 3.583 0 0 1-2.62 1.134 7.163 7.163 0 0 1-6.936-5.347 7.14 7.14 0 0 1 .206-4.221l.04-.104A.357.357 0 0 0 13.17 2H5.901"
          fill="#FFCD33"/>
    <path fill-rule="evenodd" clip-rule="evenodd"
          d="M30.01 2.36c.224.833.343 1.708.343 2.61 0 3.055-1.362 5.793-3.513 7.646-.538.405-.997.806-1.895 1.281 1.628-1.53 2.424-3.324 2.424-5.36a7.08 7.08 0 0 0-.225-1.784c.15-.582.226-1.18.225-1.782a7.1 7.1 0 0 0-.45-2.496.358.358 0 0 1 .34-.475h2.29a.49.49 0 0 1 .461.36Z"
          fill="#FFCD33"/>
    <path d="M3 19.252c0 1.23.725 1.92 1.86 1.92.563 0 .969-.155 1.256-.367v-.687h-.368a1.09 1.09 0 0 1-.822.33c-.569 0-.866-.368-.866-1.233 0-.8.34-1.185.914-1.185.34 0 .568.12.709.25h.4v-.72c-.28-.163-.605-.27-1.136-.27C3.78 17.29 3 18.013 3 19.251Zm2.623-2.646-.497.542H4.47l-.476-.542v-.205h.525l.303.205.297-.205h.503v.205h.001Zm1.638 3.307c.05.481.276.605.67.605.32 0 .558-.092.726-.21h.302v.578c-.248.14-.584.282-1.178.282-.99 0-1.504-.552-1.504-1.45 0-.914.595-1.488 1.455-1.488.887 0 1.341.47 1.341 1.434 0 .113-.01.216-.01.248H7.26l.001.001Zm.006-.51h.887c-.016-.437-.163-.577-.422-.577-.222 0-.41.113-.465.578Zm2.053 1.531v-.637h.33c.114.102.352.21.66.21.26 0 .422-.06.422-.205 0-.152-.097-.2-.493-.254-.605-.076-.946-.287-.946-.882 0-.622.487-.93 1.201-.93.454 0 .72.075.963.19v.626h-.308a1.127 1.127 0 0 0-.628-.173c-.27 0-.373.07-.373.206 0 .12.124.178.487.221.665.081.984.281.984.888 0 .605-.4.969-1.27.969-.499 0-.797-.108-1.029-.228Zm3.534-1.6.887-1.06h.812v.232l-.785.892.893 1.493v.234h-.914l-.66-1.11-.233.254v.856h-.974v-3.787h.617c.298 0 .357.075.357.508v1.487Zm3.596 1.52c-.2.222-.465.309-.816.309-.503 0-.903-.288-.903-.85 0-.6.46-.888 1.12-.888.216 0 .383.022.546.055v-.195c0-.249-.13-.362-.482-.362-.28 0-.513.08-.676.19h-.292v-.656a2.915 2.915 0 0 1 1.158-.227c.848 0 1.265.281 1.265.984v1.91h-.53c-.227 0-.335-.08-.39-.27Zm-.053-.92a1.949 1.949 0 0 0-.32-.027c-.26 0-.42.102-.42.34 0 .244.15.347.361.347.146 0 .276-.07.38-.157v-.503Zm-.58-1.845v-.178l.18-.59h.935v.233l-.546.535h-.568Zm4.206 2.808v1.104h-.973v-3.728h.676c.147 0 .233.054.271.308.21-.2.487-.35.876-.35.54 0 1.077.35 1.077 1.39 0 1.086-.595 1.477-1.228 1.477-.309 0-.53-.07-.699-.2Zm0-1.85v1.31a.66.66 0 0 0 .396.113c.297 0 .546-.136.546-.763 0-.612-.238-.752-.53-.752-.119 0-.28.038-.412.092Zm2.142.665c0-.914.66-1.482 1.52-1.482.854 0 1.514.568 1.514 1.482 0 .91-.66 1.456-1.514 1.456-.86 0-1.52-.547-1.52-1.456Zm2.05.011c0-.568-.217-.828-.53-.828-.32 0-.536.26-.536.828 0 .563.217.806.536.806.313 0 .53-.243.53-.806Zm1.19 1.211v-.637h.33c.113.102.351.21.66.21.258 0 .42-.06.42-.205 0-.152-.096-.2-.492-.254-.606-.076-.946-.287-.946-.882 0-.622.487-.93 1.2-.93.455 0 .72.075.963.19v.626h-.308a1.126 1.126 0 0 0-.627-.173c-.27 0-.373.07-.373.206 0 .12.123.178.487.221.665.081.984.281.984.888 0 .605-.4.969-1.27.969-.499 0-.797-.108-1.029-.228Zm1.97-3.407-.5.563h-.655l-.475-.563v-.206h.525l.302.228.298-.228h.503v.206h.001Zm.456.746h.31v-.724h.974v.724h.53v.628h-.53v1.3c0 .254.097.335.352.335h.188v.563a1.965 1.965 0 0 1-.558.075c-.584 0-.957-.204-.957-.828v-1.444h-.309v-.628Zm3.74 2.58c-.202.223-.466.31-.819.31-.502 0-.902-.288-.902-.85 0-.6.46-.888 1.12-.888.215 0 .383.022.546.055v-.195c0-.249-.13-.362-.482-.362-.281 0-.514.08-.676.19h-.293v-.656a2.91 2.91 0 0 1 1.159-.227c.85 0 1.265.281 1.265.984v1.91h-.53c-.227 0-.335-.08-.39-.27h.002Zm-.056-.416v-.503a1.939 1.939 0 0 0-.32-.027c-.259 0-.42.102-.42.34 0 .244.15.347.362.347.145 0 .276-.07.378-.157Z"
          fill="#1F357A"/>
</svg>
