<svg width="48" height="24" viewBox="0 0 48 24" fill="none" xmlns="http://www.w3.org/2000/svg">
    <path d="M34.065 1C33.5062 1 32.6856 1.6358 32.3523 1.9108L31.5493 2.5829C31.4026 2.69976 31.2198 2.76198 31.0323 2.7589C30.8441 2.76221 30.6605 2.7 30.5131 2.5829L29.698 1.9097C29.1502 1.4576 28.2427 1 27.5673 1C26.8919 1 25.9833 1.4576 25.4366 1.9086L24.6193 2.5829C24.4711 2.70007 24.2868 2.76227 24.0979 2.7589C23.909 2.76218 23.7248 2.69999 23.5765 2.5829L22.7592 1.9086C22.2246 1.4686 21.2962 1 20.6274 1C19.9586 1 19.0302 1.4686 18.4956 1.9086L17.6794 2.5829C17.5308 2.70023 17.3462 2.76243 17.1569 2.7589C16.9676 2.76243 16.783 2.70023 16.6344 2.5829L15.8182 1.9086C15.772 1.8723 14.6885 1 14.0329 1C13.286 1 13 1.8657 13 2.6071V21.394C13 22.1343 13.2849 23 14.034 23C14.6632 23 15.6807 22.1838 15.7907 22.0925L16.6223 21.4171C16.7724 21.2995 16.9585 21.2374 17.1492 21.2411C17.3395 21.2373 17.5253 21.2995 17.675 21.4171L18.4934 22.0914C19.028 22.5314 19.9564 23 20.6263 23C21.2951 23 22.2246 22.5314 22.7581 22.0914L23.5754 21.4171C23.724 21.2998 23.9086 21.2376 24.0979 21.2411C24.297 21.2411 24.4829 21.3038 24.6204 21.4171L25.4377 22.0914C25.9712 22.5314 26.9007 23 27.5684 23C28.2372 23 29.1656 22.5314 29.7002 22.0914L30.5175 21.4171C30.6658 21.3 30.85 21.2378 31.0389 21.2411C31.238 21.2411 31.4239 21.3038 31.5614 21.4171L32.3787 22.0914C32.7901 22.4302 33.5392 23 34.065 23C34.681 23 35 22.4291 35 21.3929V2.606C35 1.572 34.681 1 34.065 1ZM30.1765 17.5253H24.7645V15.6168H30.1765V17.5253ZM30.1765 12.9042H17.9412V11.0958H30.1765V12.9042ZM30.1765 8.3832H17.9412V6.4747H30.1765V8.3832Z"
          fill="#246589"/>
</svg>
