<svg viewBox="0 0 42 24" xmlns="http://www.w3.org/2000/svg">
    <path fill-rule="evenodd" clip-rule="evenodd"
          d="M27.025 17.52c-.764.214-1.76.303-2.614.303-2.222 0-3.68-1.155-3.68-3.271 0-2.01 1.37-3.307 3.36-3.307.444 0 .924.053 1.21.195V8.524h1.724v8.997Zm-1.724-4.587c-.267-.123-.641-.194-1.068-.194-1.048 0-1.742.64-1.742 1.759 0 1.192.747 1.867 1.974 1.867.213 0 .551 0 .836-.072v-3.36Zm15.895 4.588c-.765.213-1.76.302-2.632.302-2.204 0-3.68-1.155-3.68-3.271 0-2.01 1.369-3.307 3.36-3.307.463 0 .924.053 1.21.195V8.524h1.742v8.997Zm-1.743-4.588c-.266-.123-.622-.194-1.048-.194-1.068 0-1.76.64-1.76 1.759 0 1.192.764 1.867 1.991 1.867.213 0 .533 0 .817-.072v-3.36Zm-9.708 0c.285-.123.694-.16 1.032-.16 1.067 0 1.796.605 1.796 1.69 0 1.28-.819 1.866-1.902 1.884v1.476h.088c2.24 0 3.574-1.226 3.574-3.414 0-1.992-1.423-3.164-3.52-3.164-1.068 0-2.116.248-2.809.533v8.445h1.741v-7.29Z"
          fill="#3F3F42"/>
    <path fill-rule="evenodd" clip-rule="evenodd" d="m14.366 7.138.285.32.16-.089-.445-.231Z" fill="#DC0032"/>
    <path fill-rule="evenodd" clip-rule="evenodd" d="m13.94 6.907.552.64.194-.107-.213-.248-.534-.285Z" fill="#DC0032"/>
    <path fill-rule="evenodd" clip-rule="evenodd" d="m13.495 6.676.836.96.195-.106-.48-.569-.552-.285h.001Z"
          fill="#DC0032"/>
    <path fill-rule="evenodd" clip-rule="evenodd"
          d="m13.068 6.444 1.103 1.28.195-.105-.764-.89-.534-.283v-.002Zm2.116 2.259-.124.072.123.141v-.213Z"
          fill="#DC0032"/>
    <path fill-rule="evenodd" clip-rule="evenodd"
          d="m12.64 6.214 1.37 1.6.195-.107-1.032-1.209-.532-.284Zm2.473 2.525-.196.124.266.32v-.339l-.072-.107.002.002Z"
          fill="#DC0032"/>
    <path fill-rule="evenodd" clip-rule="evenodd"
          d="m12.197 5.982 1.653 1.92.214-.105-1.316-1.53-.551-.285Zm2.756 2.846-.195.124.426.498v-.338l-.23-.284Z"
          fill="#DC0032"/>
    <path fill-rule="evenodd" clip-rule="evenodd"
          d="m11.771 5.752 1.938 2.24.196-.106-1.601-1.85-.533-.284Zm3.022 3.182-.196.107.588.694v-.339l-.392-.462Z"
          fill="#DC0032"/>
    <path fill-rule="evenodd" clip-rule="evenodd"
          d="m11.344 5.52 2.204 2.56.196-.108-1.867-2.168-.533-.284Zm3.288 3.502-.195.107.747.871v-.338l-.552-.64Z"
          fill="#DC0032"/>
    <path fill-rule="evenodd" clip-rule="evenodd"
          d="m10.9 5.29 2.488 2.88.196-.108-2.134-2.489-.552-.284h.002Zm3.573 3.821-.195.108.906 1.048v-.338l-.71-.818Z"
          fill="#DC0032"/>
    <path fill-rule="evenodd" clip-rule="evenodd"
          d="m10.472 5.058 2.757 3.218.195-.125-2.418-2.809-.534-.284Zm3.84 4.142-.195.107 1.068 1.244v-.337L14.312 9.2Z"
          fill="#DC0032"/>
    <path fill-rule="evenodd" clip-rule="evenodd"
          d="m10.027 4.826 3.041 3.539.196-.125-2.685-3.128-.552-.286Zm4.144 4.464-.214.106 1.227 1.423v-.338L14.17 9.289v.001Z"
          fill="#DC0032"/>
    <path fill-rule="evenodd" clip-rule="evenodd"
          d="m9.601 4.596 3.307 3.858.214-.125-2.97-3.449-.55-.284Zm4.41 4.782-.197.108 1.37 1.616v-.355L14.01 9.379l.001-.001Z"
          fill="#DC0032"/>
    <path fill-rule="evenodd" clip-rule="evenodd"
          d="m9.174 4.364 3.591 4.179.196-.125L9.708 4.65l-.534-.286Zm4.676 5.104-.195.105 1.528 1.797v-.338L13.85 9.467Z"
          fill="#DC0032"/>
    <path fill-rule="evenodd" clip-rule="evenodd"
          d="m8.73 4.116 3.876 4.516.196-.125L9.28 4.419l-.552-.303h.001Zm4.961 5.441-.196.106 1.689 1.974v-.338l-1.492-1.742h-.001Z"
          fill="#DC0032"/>
    <path fill-rule="evenodd" clip-rule="evenodd"
          d="m8.304 3.885 4.142 4.836.196-.107-3.787-4.428-.552-.301Zm5.226 5.76-.194.108 1.848 2.168v-.355l-1.654-1.92v-.001Z"
          fill="#DC0032"/>
    <path fill-rule="evenodd" clip-rule="evenodd"
          d="m7.877 3.672 4.409 5.137.195-.106L8.41 3.955l-.533-.284v.001Zm5.494 6.063-.196.105 2.009 2.347v-.337L13.37 9.735Z"
          fill="#DC0032"/>
    <path fill-rule="evenodd" clip-rule="evenodd"
          d="m7.592 3.6 4.534 5.298.196-.107-4.339-5.066-.108-.054a.522.522 0 0 0-.282-.071Zm5.619 6.223-.196.107 2.168 2.525v-.339l-1.971-2.293h-.001Z"
          fill="#DC0032"/>
    <path fill-rule="evenodd" clip-rule="evenodd"
          d="M7.593 3.6a.875.875 0 0 0-.214.036l4.588 5.352.212-.108L7.645 3.6h-.052Zm5.475 6.312-.195.106 2.31 2.72v-.356l-2.115-2.47Z"
          fill="#DC0032"/>
    <path fill-rule="evenodd" clip-rule="evenodd"
          d="M7.432 3.618c-.036.017-.089.036-.107.053l-.107.054 4.606 5.352.196-.108-4.588-5.352v.001Zm5.477 6.383-.196.125 2.472 2.88v-.338L12.91 10Z"
          fill="#DC0032"/>
    <path fill-rule="evenodd" clip-rule="evenodd"
          d="m7.254 3.689-.195.108 4.605 5.367.196-.108-4.606-5.368Zm5.494 6.4-.196.125 2.632 3.058v-.337l-2.436-2.844v-.002Z"
          fill="#DC0032"/>
    <path fill-rule="evenodd" clip-rule="evenodd"
          d="m7.095 3.778-.196.106 4.604 5.368.196-.106-4.604-5.37v.002Zm5.493 6.4-.195.125 2.79 3.253v-.338l-2.595-3.04Z"
          fill="#DC0032"/>
    <path fill-rule="evenodd" clip-rule="evenodd"
          d="m6.934 3.866-.196.108 4.606 5.369.196-.108-4.606-5.369Zm5.495 6.401-.196.125 2.952 3.432v-.339l-2.756-3.218Z"
          fill="#DC0032"/>
    <path fill-rule="evenodd" clip-rule="evenodd"
          d="m6.774 3.955-.195.108 4.605 5.369.196-.107-4.606-5.37Zm5.495 6.4-.197.126 3.112 3.61v-.34l-2.916-3.395h.001Z"
          fill="#DC0032"/>
    <path fill-rule="evenodd" clip-rule="evenodd"
          d="m6.615 4.044-.196.108 4.604 5.369.196-.107-4.604-5.369v-.001Zm5.511 6.402-.195.123 3.253 3.806v-.338l-3.058-3.591Z"
          fill="#DC0032"/>
    <path fill-rule="evenodd" clip-rule="evenodd"
          d="m6.453 4.116-.195.124 4.623 5.37.196-.107-4.624-5.388v.001Zm5.512 6.436-.196.108 3.414 3.982v-.338l-3.218-3.752Z"
          fill="#DC0032"/>
    <path fill-rule="evenodd" clip-rule="evenodd"
          d="m6.294 4.204-.195.107L10.72 9.7l.196-.108-4.623-5.388v.001Zm5.512 6.437-.196.106 3.574 4.178v-.355l-3.378-3.929Z"
          fill="#DC0032"/>
    <path fill-rule="evenodd" clip-rule="evenodd"
          d="m6.135 4.293-.196.107 4.621 5.404.196-.125-4.623-5.388.002.002Zm5.511 6.435-.195.108 3.733 4.356v-.339l-3.538-4.125Z"
          fill="#DC0032"/>
    <path fill-rule="evenodd" clip-rule="evenodd"
          d="m5.973 4.382-.195.107L10.4 9.894l.196-.125L5.973 4.38v.001Zm5.513 6.436-.195.108 3.892 4.533v-.34l-3.697-4.301Z"
          fill="#DC0032"/>
    <path fill-rule="evenodd" clip-rule="evenodd"
          d="m5.814 4.472-.195.106 4.622 5.405.196-.125-4.623-5.386Zm5.512 6.436-.196.107 4.054 4.728v-.355l-3.858-4.48Z"
          fill="#DC0032"/>
    <path fill-rule="evenodd" clip-rule="evenodd"
          d="m5.655 4.56-.196.108 4.621 5.402.196-.124L5.655 4.56Zm5.53 6.436-.196.107 4.195 4.908v-.338l-4-4.677Z"
          fill="#DC0032"/>
    <path fill-rule="evenodd" clip-rule="evenodd"
          d="m5.493 4.632-.213.106 4.658 5.424.196-.125-4.64-5.406v.001Zm5.53 6.454-.196.107 4.356 5.084v-.337l-4.16-4.854Z"
          fill="#DC0032"/>
    <path fill-rule="evenodd" clip-rule="evenodd"
          d="m5.334 4.72-.213.106 4.676 5.441a.14.14 0 0 1 .072-.07l.106-.073-4.64-5.403Zm5.53 6.454-.196.107 4.481 5.227a.515.515 0 0 0 .036-.16v-.142l-4.322-5.032Z"
          fill="#DC0032"/>
    <path fill-rule="evenodd" clip-rule="evenodd"
          d="m5.175 4.809-.214.108 4.782 5.564v-.072c0-.053.036-.124.072-.178L5.175 4.81Zm5.53 6.454-.145.09c-.018 0-.036.017-.053.017l4.552 5.316a.601.601 0 0 0 .106-.213l-4.46-5.21Z"
          fill="#DC0032"/>
    <path fill-rule="evenodd" clip-rule="evenodd"
          d="m5.013 4.898-.213.106 4.944 5.761v-.355L5.012 4.898h.001Zm5.193 6.382 4.728 5.53c.054-.036.108-.108.16-.161l-4.551-5.297a.302.302 0 0 1-.248 0l-.09-.072Z"
          fill="#DC0032"/>
    <path fill-rule="evenodd" clip-rule="evenodd"
          d="m4.854 4.987-.213.107L14.776 16.9l.141-.072.054-.053-4.658-5.423h-.018l-.408-.248c-.036-.018-.054-.054-.09-.09-.036-.053-.036-.09-.053-.124v-.196l-4.89-5.707Z"
          fill="#DC0032"/>
    <path fill-rule="evenodd" clip-rule="evenodd" d="m4.695 5.076-.214.107 10.134 11.806.196-.107L4.695 5.076Z"
          fill="#DC0032"/>
    <path fill-rule="evenodd" clip-rule="evenodd" d="m4.533 5.147-.213.106 10.152 11.824.197-.107L4.533 5.147Z"
          fill="#DC0032"/>
    <path fill-rule="evenodd" clip-rule="evenodd" d="m4.374 5.235-.214.108 10.152 11.823.196-.107L4.374 5.235Z"
          fill="#DC0032"/>
    <path fill-rule="evenodd" clip-rule="evenodd" d="M4.215 5.324 4 5.431l10.152 11.824.196-.107L4.215 5.324Z"
          fill="#DC0032"/>
    <path fill-rule="evenodd" clip-rule="evenodd" d="m4.035 5.413-.195.108 10.152 11.84.197-.124L4.037 5.413h-.002Z"
          fill="#DC0032"/>
    <path fill-rule="evenodd" clip-rule="evenodd" d="m3.876 5.502-.196.108 10.152 11.84.196-.124L3.876 5.502Z"
          fill="#DC0032"/>
    <path fill-rule="evenodd" clip-rule="evenodd" d="m3.717 5.592-.196.107 10.17 11.84.196-.124L3.717 5.592Z"
          fill="#DC0032"/>
    <path fill-rule="evenodd" clip-rule="evenodd" d="m3.555 5.663-.195.107 10.17 11.858.196-.123L3.556 5.663Z"
          fill="#DC0032"/>
    <path fill-rule="evenodd" clip-rule="evenodd" d="m3.396 5.752-.196.107 10.17 11.86.196-.109L3.396 5.753v-.001Z"
          fill="#DC0032"/>
    <path fill-rule="evenodd" clip-rule="evenodd"
          d="m3.237 5.84-.196.108 4.943 5.76.16.108c.071.034.142.123.142.212v.018l4.925 5.76.196-.107L3.237 5.841Z"
          fill="#DC0032"/>
    <path fill-rule="evenodd" clip-rule="evenodd"
          d="m3.075 5.928-.195.108 4.641 5.423.586.32-5.032-5.851Zm5.193 6.048c0 .016.018.036.018.052v.303l4.764 5.564.195-.105-4.977-5.815Z"
          fill="#DC0032"/>
    <path fill-rule="evenodd" clip-rule="evenodd"
          d="m2.916 6.018-.196.106 4.338 5.068.587.32-4.73-5.494Zm5.369 6.24v.338l4.623 5.388.196-.108-4.82-5.617v-.001Z"
          fill="#DC0032"/>
    <path fill-rule="evenodd" clip-rule="evenodd"
          d="m2.756 6.106-.195.107 4.053 4.711.569.32-4.428-5.138h.001Zm5.529 6.42v.354l4.463 5.192.195-.106-4.658-5.44Z"
          fill="#DC0032"/>
    <path fill-rule="evenodd" clip-rule="evenodd"
          d="m2.595 6.178-.195.108 3.752 4.373.57.338-4.127-4.82Zm5.69 6.632v.337l4.303 5.015.196-.108-4.498-5.244Z"
          fill="#DC0032"/>
    <path fill-rule="evenodd" clip-rule="evenodd"
          d="m2.436 6.268-.196.107 3.448 4.017.569.339-3.822-4.464Zm5.85 6.809v.338l4.142 4.836.196-.107-4.338-5.067Z"
          fill="#DC0032"/>
    <path fill-rule="evenodd" clip-rule="evenodd"
          d="m2.276 6.355-.195.108 3.146 3.68.569.32-3.52-4.108Zm6.01 6.988v.357l3.981 4.658.196-.125-4.177-4.89Z"
          fill="#DC0032"/>
    <path fill-rule="evenodd" clip-rule="evenodd"
          d="m2.116 6.444-.196.108 2.844 3.324.57.32-3.218-3.752Zm6.169 7.185v.337l3.84 4.48.197-.124-4.037-4.694Z"
          fill="#DC0032"/>
    <path fill-rule="evenodd" clip-rule="evenodd"
          d="m1.956 6.534-.196.107L4.303 9.61l.586.32-2.933-3.396Zm6.329 7.361v.337l3.68 4.303.196-.124-3.876-4.516Z"
          fill="#DC0032"/>
    <path fill-rule="evenodd" clip-rule="evenodd"
          d="M1.795 6.623 1.6 6.73l2.24 2.613.588.338-2.634-3.057h.001Zm4.659 5.76.463.534v-.196c0-.036-.036-.088-.072-.106l-.391-.23v-.002Zm1.832 1.778v.357l3.52 4.106L12 18.5l-3.715-4.338Z"
          fill="#DB0032"/>
    <path fill-rule="evenodd" clip-rule="evenodd"
          d="M1.636 6.693 1.44 6.8l1.938 2.277.588.337-2.33-2.72Zm4.356 5.424.924 1.066v-.337l-.336-.391-.588-.339v.001Zm2.294 2.328v.339l3.36 3.929.195-.107-3.555-4.16Z"
          fill="#DC0032"/>
    <path fill-rule="evenodd" clip-rule="evenodd"
          d="m1.476 6.782-.196.108 1.654 1.937.569.32-2.028-2.364Zm4.053 5.086 1.386 1.6v-.338l-.799-.942-.588-.32h.001Zm2.756 2.844v.338l3.2 3.751.196-.106-3.396-3.983Z"
          fill="#DC0032"/>
    <path fill-rule="evenodd" clip-rule="evenodd"
          d="m1.315 6.871-.195.107L2.472 8.56l.57.319L1.316 6.87Zm3.77 4.73 1.832 2.133v-.337L5.654 11.92l-.57-.32Zm3.2 3.395v.339l3.059 3.555.195-.107-3.254-3.787Z"
          fill="#DC0032"/>
    <path fill-rule="evenodd" clip-rule="evenodd"
          d="m1.156 6.96-.196.108 1.049 1.226.569.32L1.156 6.96Zm3.468 4.374 2.292 2.668v-.339L5.19 11.671l-.569-.336.002-.001Zm3.66 3.93v.336l2.9 3.378.196-.107-3.095-3.608v.001Z"
          fill="#DC0032"/>
    <path fill-rule="evenodd" clip-rule="evenodd"
          d="M.996 7.05.8 7.155l.747.872.568.338L.995 7.05Zm3.164 4.017 2.757 3.219v-.339l-2.19-2.541-.568-.339h.001Zm4.126 4.463v.337l2.737 3.2.196-.105-2.933-3.432Z"
          fill="#DC0032"/>
    <path fill-rule="evenodd" clip-rule="evenodd"
          d="m.835 7.138-.195.108.444.514.588.338-.837-.96Zm2.863 3.68 3.219 3.735v-.339l-2.65-3.075-.569-.32Zm4.588 4.997v.337l2.578 3.005.195-.107-2.773-3.235Z"
          fill="#DC0032"/>
    <path fill-rule="evenodd" clip-rule="evenodd"
          d="m.676 7.209-.214.107.16.195.588.32-.534-.622Zm2.56 3.342 3.68 4.285v-.355l-3.093-3.61-.588-.32h.001Zm5.05 5.53v.338l2.418 2.844.195-.124-2.613-3.06v.002Z"
          fill="#DC0032"/>
    <path fill-rule="evenodd" clip-rule="evenodd"
          d="M.516 7.298.39 7.37l.355.194-.23-.266Zm2.257 2.988 4.144 4.817v-.338L3.36 10.623l-.587-.338Zm5.512 6.062v.355l2.276 2.65.196-.125-2.472-2.88Z"
          fill="#DC0032"/>
    <path fill-rule="evenodd" clip-rule="evenodd"
          d="m2.328 10.019 4.589 5.352v-.339l-4.019-4.676-.569-.337Zm5.957 6.613v.338l2.117 2.472.195-.125-2.312-2.685Z"
          fill="#DC0032"/>
    <path fill-rule="evenodd" clip-rule="evenodd"
          d="m1.867 9.77 5.05 5.884V15.3l-4.481-5.21-.569-.32Zm6.418 7.13v.337l1.956 2.293.195-.123-2.151-2.508Z"
          fill="#DC0032"/>
    <path fill-rule="evenodd" clip-rule="evenodd"
          d="m1.404 9.503 5.513 6.419v-.339l-4.944-5.76-.57-.32Zm6.88 7.663v.355l1.797 2.1.196-.109-1.992-2.346Z"
          fill="#DC0032"/>
    <path fill-rule="evenodd" clip-rule="evenodd"
          d="m.942 9.236 5.975 6.952v-.337L1.512 9.575l-.57-.339Zm7.344 8.214v.339l1.635 1.92.196-.108-1.831-2.15Z"
          fill="#DB0032"/>
    <path fill-rule="evenodd" clip-rule="evenodd"
          d="m.48 8.97 6.437 7.502v-.337L1.049 9.307.48 8.97Zm7.806 8.748v.336l1.493 1.743.195-.107-1.688-1.974v.002Z"
          fill="#DA0032"/>
    <path fill-rule="evenodd" clip-rule="evenodd"
          d="m.018 8.72 6.899 8.02v-.338L.605 9.042.017 8.72Zm8.268 9.265v.355l1.332 1.547.197-.107-1.53-1.797v.002Z"
          fill="#D90032"/>
    <path fill-rule="evenodd" clip-rule="evenodd"
          d="M0 8.702v.25l6.917 8.054v-.338L.143 8.774 0 8.702Zm8.286 9.566v.214c0 .036-.018.07-.036.089l1.208 1.404.196-.107-1.368-1.6Z"
          fill="#D80032"/>
    <path fill-rule="evenodd" clip-rule="evenodd"
          d="M0 8.88v.356l6.917 8.055v-.339L0 8.88Zm8.268 9.655c-.018.07-.072.142-.125.16l-.018.018 1.174 1.35.195-.106-1.226-1.422Z"
          fill="#D70032"/>
    <path fill-rule="evenodd" clip-rule="evenodd"
          d="M0 9.166v.337l6.917 8.055v-.338L0 9.166Zm8.16 9.512c0 .017 0 .017-.017.017l-.177.108 1.173 1.35.196-.107-1.174-1.368H8.16Z"
          fill="#D60032"/>
    <path fill-rule="evenodd" clip-rule="evenodd"
          d="M0 9.432v.337l6.917 8.054v-.337L0 9.432Zm8.018 9.334-.213.124 1.191 1.37.196-.126-1.174-1.368Z"
          fill="#D50032"/>
    <path fill-rule="evenodd" clip-rule="evenodd"
          d="M0 9.717v.337l6.917 8.054v-.337L0 9.717Zm7.859 9.138-.125.072c-.036.017-.072.017-.107.017l1.21 1.405.195-.125-1.173-1.368v-.001Z"
          fill="#D40032"/>
    <path fill-rule="evenodd" clip-rule="evenodd"
          d="M0 9.984v.336l6.917 8.056v-.338L0 9.984Zm7.308 8.872 1.368 1.583.196-.125-1.19-1.37c-.019 0-.055.019-.073.019h-.017a.257.257 0 0 1-.124-.036l-.16-.072v.001Z"
          fill="#D30032"/>
    <path fill-rule="evenodd" clip-rule="evenodd"
          d="M0 10.249v.356l8.516 9.922.196-.125-1.28-1.494-.392-.213a.247.247 0 0 1-.123-.213v-.179L0 10.25Z"
          fill="#D20032"/>
    <path fill-rule="evenodd" clip-rule="evenodd" d="M0 10.533v.339l8.357 9.744.195-.108L0 10.533Z" fill="#D10032"/>
    <path fill-rule="evenodd" clip-rule="evenodd" d="M0 10.8v.338l8.196 9.566.196-.108L0 10.802v-.001Z" fill="#D00032"/>
    <path fill-rule="evenodd" clip-rule="evenodd" d="M0 11.067v.356l8.054 9.37.196-.108L0 11.07v-.002Z" fill="#CF0032"/>
    <path fill-rule="evenodd" clip-rule="evenodd" d="M0 11.352v.337l7.895 9.192.195-.106L0 11.352Z" fill="#CE0032"/>
    <path fill-rule="evenodd" clip-rule="evenodd" d="M0 11.618v.339l7.716 8.996.16-.054.054-.036L0 11.619Z"
          fill="#CD0032"/>
    <path fill-rule="evenodd" clip-rule="evenodd" d="M0 11.885v.356l7.486 8.712h.106c.053 0 .107 0 .16-.018L0 11.885Z"
          fill="#CC0032"/>
    <path fill-rule="evenodd" clip-rule="evenodd"
          d="M0 12.17v.337l7.076 8.25.249.143a.421.421 0 0 0 .213.053L0 12.169v.001Z" fill="#CB0032"/>
    <path fill-rule="evenodd" clip-rule="evenodd" d="M0 12.437v.337l6.614 7.716.587.338L0 12.437Z" fill="#CA0032"/>
    <path fill-rule="evenodd" clip-rule="evenodd" d="M0 12.722v.338l6.152 7.164.586.338L0 12.723Z" fill="#C90032"/>
    <path fill-rule="evenodd" clip-rule="evenodd" d="M0 12.987v.339l5.69 6.63.568.34L0 12.986Z" fill="#C80033"/>
    <path fill-rule="evenodd" clip-rule="evenodd" d="M0 13.254v.338l5.227 6.099.569.338L0 13.253v.001Z" fill="#C70033"/>
    <path fill-rule="evenodd" clip-rule="evenodd" d="M0 13.538v.338l4.747 5.53.587.337L0 13.54Z" fill="#C60033"/>
    <path fill-rule="evenodd" clip-rule="evenodd" d="M0 13.806v.337l4.284 4.997.588.337L0 13.806Z" fill="#C50033"/>
    <path fill-rule="evenodd" clip-rule="evenodd" d="M0 14.072v.339l3.823 4.461.587.339L0 14.072Z" fill="#C40033"/>
    <path fill-rule="evenodd" clip-rule="evenodd" d="M0 14.356v.338l3.36 3.912.588.337L0 14.358v-.002Z" fill="#C30033"/>
    <path fill-rule="evenodd" clip-rule="evenodd" d="M0 14.623v.337l2.898 3.38.587.337L0 14.623Z" fill="#C20033"/>
    <path fill-rule="evenodd" clip-rule="evenodd" d="M0 14.89v.356l2.436 2.827.569.337L0 14.892v-.001Z" fill="#C10033"/>
    <path fill-rule="evenodd" clip-rule="evenodd" d="M0 15.175v.337l1.956 2.293.587.339L0 15.174Z" fill="#C00033"/>
    <path fill-rule="evenodd" clip-rule="evenodd" d="M0 15.441v.338l1.494 1.76.587.32L0 15.441Z" fill="#BF0033"/>
    <path fill-rule="evenodd" clip-rule="evenodd" d="M0 15.708v.355l1.032 1.192.586.337L0 15.708Z" fill="#BE0033"/>
    <path fill-rule="evenodd" clip-rule="evenodd" d="M0 15.992v.339l.569.657.588.337L0 15.993Z" fill="#BD0033"/>
    <path fill-rule="evenodd" clip-rule="evenodd" d="M0 16.26v.087c0 .18.125.392.266.48l.428.232-.694-.8Z"
          fill="#BC0033"/>
    <path fill-rule="evenodd" clip-rule="evenodd" d="M.107 16.668c.036.036.053.072.089.089l-.09-.089Z" fill="#B03"/>
</svg>
