<svg viewBox="0 0 48 24" xmlns="http://www.w3.org/2000/svg">
    <path d="M19.31 11.967v-.73a.431.431 0 0 0-.458-.464.452.452 0 0 0-.408.208.428.428 0 0 0-.385-.208.385.385 0 0 0-.342.174v-.144h-.253v1.164h.257v-.64a.275.275 0 0 1 .284-.31c.168 0 .253.11.253.307v.648h.257v-.645a.274.274 0 0 1 .284-.31c.172 0 .256.11.256.307v.648l.256-.005h-.001Zm3.782-1.164h-.416v-.353h-.257v.353h-.23v.232h.236v.535c0 .27.104.43.404.43.112.001.222-.03.317-.09l-.073-.217a.465.465 0 0 1-.225.066c-.122 0-.167-.077-.167-.195v-.53h.414l-.003-.231Zm2.159-.03a.342.342 0 0 0-.306.171v-.141h-.251v1.164h.252v-.652c0-.194.083-.301.245-.301.053 0 .107.01.158.03l.077-.244a.544.544 0 0 0-.18-.032l.005.005Zm-3.264.123a.871.871 0 0 0-.475-.123c-.294 0-.487.142-.487.373 0 .19.141.306.403.343l.12.017c.14.02.205.056.205.122 0 .09-.092.14-.265.14a.619.619 0 0 1-.388-.121l-.122.198a.846.846 0 0 0 .505.151c.335 0 .53-.159.53-.38 0-.222-.153-.311-.406-.348l-.122-.017c-.11-.015-.197-.037-.197-.115 0-.078.082-.137.221-.137a.766.766 0 0 1 .366.1l.112-.203Zm6.781-.123a.343.343 0 0 0-.306.171v-.141h-.252v1.164h.254v-.652c0-.194.082-.301.243-.301.054 0 .107.01.159.03l.077-.244a.542.542 0 0 0-.18-.032l.005.005Zm-3.262.609a.588.588 0 0 0 .62.61.608.608 0 0 0 .42-.14l-.123-.204a.51.51 0 0 1-.304.104.374.374 0 0 1 0-.745c.11 0 .217.038.305.105l.121-.204a.608.608 0 0 0-.419-.14.59.59 0 0 0-.62.609v.005Zm2.37 0v-.58h-.252v.142a.442.442 0 0 0-.367-.17.609.609 0 0 0 0 1.217.442.442 0 0 0 .367-.17v.14h.252v-.58Zm-.941 0a.352.352 0 1 1 .703.042.352.352 0 0 1-.703-.042Zm-3.056-.609a.609.609 0 0 0 .017 1.218.708.708 0 0 0 .484-.159l-.122-.187a.554.554 0 0 1-.339.123.323.323 0 0 1-.348-.286h.865v-.098c0-.365-.226-.608-.553-.608l-.004-.003Zm0 .226a.29.29 0 0 1 .295.284h-.609a.3.3 0 0 1 .309-.284h.005Zm6.344.385v-1.049h-.245v.61a.442.442 0 0 0-.365-.172.609.609 0 0 0 0 1.218.442.442 0 0 0 .367-.17v.14h.243v-.577Zm.422.413a.115.115 0 0 1 .084.197.122.122 0 0 1-.039.024.114.114 0 0 1-.046.01.123.123 0 0 1-.11-.071.115.115 0 0 1 .027-.127.122.122 0 0 1 .087-.033h-.004.001Zm0 .206a.086.086 0 0 0 .08-.054.084.084 0 0 0 .006-.034.09.09 0 0 0-.024-.06.088.088 0 0 0-.097-.02.092.092 0 0 0-.03.02.09.09 0 0 0 0 .121.092.092 0 0 0 .068.027h-.004.001Zm.006-.145c.012 0 .023.003.032.01a.03.03 0 0 1 .009.012.032.032 0 0 1 .002.012l-.001.012a.03.03 0 0 1-.008.011.041.041 0 0 1-.024.011l.034.04h-.028l-.032-.04h-.012v.04h-.022v-.107l.05-.001Zm-.025.02v.03h.025c.005.002.01.002.015 0a.012.012 0 0 0 .002-.006c0-.002 0-.004-.002-.006l.001-.006-.001-.005a.025.025 0 0 0-.015.001l-.025-.007Zm-1.34-.494a.351.351 0 0 1 .684-.095.352.352 0 1 1-.684.095Zm-8.548 0v-.581h-.253v.141a.442.442 0 0 0-.367-.17.609.609 0 0 0 0 1.217.442.442 0 0 0 .367-.17v.14h.253v-.577Zm-.942 0a.353.353 0 1 1 .212.346.349.349 0 0 1-.214-.346h.002Z"
          fill="#231F20"/>
    <path d="M25.737 1.938h-3.834V8.83h3.835V1.94Z" fill="#FF5F00"/>
    <path d="M22.146 5.384a4.374 4.374 0 0 1 1.673-3.446 4.382 4.382 0 1 0 0 6.89 4.373 4.373 0 0 1-1.673-3.444Z"
          fill="#EB001B"/>
    <path d="M30.91 5.384a4.381 4.381 0 0 1-7.09 3.445 4.381 4.381 0 0 0 0-6.891 4.382 4.382 0 0 1 7.09 3.444v.002Zm-.418 2.714v-.14h.057v-.03h-.145v.03h.06v.14h.028Zm.28 0v-.17h-.043l-.052.121-.051-.122h-.04v.171h.033v-.127l.049.11h.031l.05-.11V8.1h.024Z"
          fill="#F79E1B"/>
    <path d="M24.279 16.661c-.016 1.242 1.108 1.935 1.953 2.348.868.422 1.16.693 1.158 1.07-.008.58-.694.835-1.337.845-1.12.018-1.772-.303-2.29-.545l-.404 1.89c.52.24 1.482.449 2.48.458 2.345 0 3.876-1.157 3.885-2.95.01-2.277-3.148-2.402-3.127-3.42.007-.308.302-.637.948-.72.317-.043 1.2-.075 2.198.384l.394-1.827a5.98 5.98 0 0 0-2.089-.384c-2.206 0-3.757 1.173-3.77 2.851Zm9.624-2.693a1.016 1.016 0 0 0-.949.633l-3.346 7.991h2.341l.467-1.287h2.86l.27 1.287h2.064l-1.8-8.624h-1.906Zm.329 2.33.675 3.237h-1.85l1.175-3.236Zm-12.791-2.33-1.846 8.624h2.231l1.845-8.624h-2.23Zm-3.3 0-2.324 5.87-.939-4.99c-.11-.559-.545-.88-1.028-.88h-3.797l-.053.25c.78.17 1.665.443 2.2.733.33.18.424.335.531.759l1.78 6.882h2.357l3.615-8.624H18.14Z"
          fill="url(#a)"/>
    <defs>
        <linearGradient id="a" x1="22.694" y1="22.906" x2="22.951" y2="13.748" gradientUnits="userSpaceOnUse">
            <stop stop-color="#222357"/>
            <stop offset="1" stop-color="#254AA5"/>
        </linearGradient>
    </defs>
</svg>
